<mxfile host="app.diagrams.net" agent="Mozilla/5.0 (X11; Linux x86_64) AppleWebKit/537.36 (KHTML, like Gecko) Chrome/115.0.0.0 Safari/537.36" version="24.7.6">
  <diagram name="第 1 页" id="fbZ4eJKub5ci0H8JDxti">
    <mxGraphModel dx="1207" dy="691" grid="1" gridSize="10" guides="1" tooltips="1" connect="1" arrows="1" fold="1" page="1" pageScale="1" pageWidth="827" pageHeight="1169" math="0" shadow="0">
      <root>
        <mxCell id="0" />
        <mxCell id="1" parent="0" />
        <mxCell id="O63pCWCleblXzCytZlu1-1" value="aeEventLoop" style="swimlane;fontStyle=1;align=center;verticalAlign=top;childLayout=stackLayout;horizontal=1;startSize=26;horizontalStack=0;resizeParent=1;resizeParentMax=0;resizeLast=0;collapsible=1;marginBottom=0;whiteSpace=wrap;html=1;" vertex="1" parent="1">
          <mxGeometry x="310" y="110" width="190" height="224" as="geometry" />
        </mxCell>
        <mxCell id="O63pCWCleblXzCytZlu1-2" value="int maxfd&lt;div&gt;int setsize&lt;/div&gt;&lt;div&gt;long long timeEventNextId&lt;/div&gt;&lt;div&gt;aeFileEvent *events&lt;/div&gt;&lt;div&gt;aeFiredEvent *fired&lt;/div&gt;&lt;div&gt;int stop&lt;/div&gt;&lt;div&gt;void *apiData&lt;/div&gt;&lt;div&gt;aeTimeEvent *timeEventHead&lt;/div&gt;&lt;div&gt;aeBeforeSleepProc *beforeSleep&lt;/div&gt;&lt;div&gt;aeBeforeSleepProc *afterSleep&lt;/div&gt;&lt;div&gt;int flags&lt;/div&gt;" style="text;strokeColor=none;fillColor=none;align=left;verticalAlign=top;spacingLeft=4;spacingRight=4;overflow=hidden;rotatable=0;points=[[0,0.5],[1,0.5]];portConstraint=eastwest;whiteSpace=wrap;html=1;" vertex="1" parent="O63pCWCleblXzCytZlu1-1">
          <mxGeometry y="26" width="190" height="164" as="geometry" />
        </mxCell>
        <mxCell id="O63pCWCleblXzCytZlu1-3" value="" style="line;strokeWidth=1;fillColor=none;align=left;verticalAlign=middle;spacingTop=-1;spacingLeft=3;spacingRight=3;rotatable=0;labelPosition=right;points=[];portConstraint=eastwest;strokeColor=inherit;" vertex="1" parent="O63pCWCleblXzCytZlu1-1">
          <mxGeometry y="190" width="190" height="8" as="geometry" />
        </mxCell>
        <mxCell id="O63pCWCleblXzCytZlu1-4" value="+ method(type): type" style="text;strokeColor=none;fillColor=none;align=left;verticalAlign=top;spacingLeft=4;spacingRight=4;overflow=hidden;rotatable=0;points=[[0,0.5],[1,0.5]];portConstraint=eastwest;whiteSpace=wrap;html=1;" vertex="1" parent="O63pCWCleblXzCytZlu1-1">
          <mxGeometry y="198" width="190" height="26" as="geometry" />
        </mxCell>
        <mxCell id="O63pCWCleblXzCytZlu1-5" value="aeFileEvent" style="swimlane;fontStyle=1;align=center;verticalAlign=top;childLayout=stackLayout;horizontal=1;startSize=26;horizontalStack=0;resizeParent=1;resizeParentMax=0;resizeLast=0;collapsible=1;marginBottom=0;whiteSpace=wrap;html=1;" vertex="1" parent="1">
          <mxGeometry x="540" y="90" width="130" height="124" as="geometry" />
        </mxCell>
        <mxCell id="O63pCWCleblXzCytZlu1-6" value="int mask&lt;div&gt;aeFileProc *rFileProc&lt;/div&gt;&lt;div&gt;aeFileProc *wFileProc&lt;/div&gt;&lt;div&gt;void *clientData&lt;/div&gt;" style="text;strokeColor=none;fillColor=none;align=left;verticalAlign=top;spacingLeft=4;spacingRight=4;overflow=hidden;rotatable=0;points=[[0,0.5],[1,0.5]];portConstraint=eastwest;whiteSpace=wrap;html=1;" vertex="1" parent="O63pCWCleblXzCytZlu1-5">
          <mxGeometry y="26" width="130" height="64" as="geometry" />
        </mxCell>
        <mxCell id="O63pCWCleblXzCytZlu1-7" value="" style="line;strokeWidth=1;fillColor=none;align=left;verticalAlign=middle;spacingTop=-1;spacingLeft=3;spacingRight=3;rotatable=0;labelPosition=right;points=[];portConstraint=eastwest;strokeColor=inherit;" vertex="1" parent="O63pCWCleblXzCytZlu1-5">
          <mxGeometry y="90" width="130" height="8" as="geometry" />
        </mxCell>
        <mxCell id="O63pCWCleblXzCytZlu1-8" value="+ method(type): type" style="text;strokeColor=none;fillColor=none;align=left;verticalAlign=top;spacingLeft=4;spacingRight=4;overflow=hidden;rotatable=0;points=[[0,0.5],[1,0.5]];portConstraint=eastwest;whiteSpace=wrap;html=1;" vertex="1" parent="O63pCWCleblXzCytZlu1-5">
          <mxGeometry y="98" width="130" height="26" as="geometry" />
        </mxCell>
        <mxCell id="O63pCWCleblXzCytZlu1-9" value="aeFiredEvent" style="swimlane;fontStyle=1;align=center;verticalAlign=top;childLayout=stackLayout;horizontal=1;startSize=26;horizontalStack=0;resizeParent=1;resizeParentMax=0;resizeLast=0;collapsible=1;marginBottom=0;whiteSpace=wrap;html=1;" vertex="1" parent="1">
          <mxGeometry x="540" y="250" width="130" height="94" as="geometry" />
        </mxCell>
        <mxCell id="O63pCWCleblXzCytZlu1-10" value="int fd&lt;div&gt;int mask&lt;/div&gt;" style="text;strokeColor=none;fillColor=none;align=left;verticalAlign=top;spacingLeft=4;spacingRight=4;overflow=hidden;rotatable=0;points=[[0,0.5],[1,0.5]];portConstraint=eastwest;whiteSpace=wrap;html=1;" vertex="1" parent="O63pCWCleblXzCytZlu1-9">
          <mxGeometry y="26" width="130" height="34" as="geometry" />
        </mxCell>
        <mxCell id="O63pCWCleblXzCytZlu1-11" value="" style="line;strokeWidth=1;fillColor=none;align=left;verticalAlign=middle;spacingTop=-1;spacingLeft=3;spacingRight=3;rotatable=0;labelPosition=right;points=[];portConstraint=eastwest;strokeColor=inherit;" vertex="1" parent="O63pCWCleblXzCytZlu1-9">
          <mxGeometry y="60" width="130" height="8" as="geometry" />
        </mxCell>
        <mxCell id="O63pCWCleblXzCytZlu1-12" value="+ method(type): type" style="text;strokeColor=none;fillColor=none;align=left;verticalAlign=top;spacingLeft=4;spacingRight=4;overflow=hidden;rotatable=0;points=[[0,0.5],[1,0.5]];portConstraint=eastwest;whiteSpace=wrap;html=1;" vertex="1" parent="O63pCWCleblXzCytZlu1-9">
          <mxGeometry y="68" width="130" height="26" as="geometry" />
        </mxCell>
        <mxCell id="O63pCWCleblXzCytZlu1-17" value="aeTimeEvent" style="swimlane;fontStyle=1;align=center;verticalAlign=top;childLayout=stackLayout;horizontal=1;startSize=26;horizontalStack=0;resizeParent=1;resizeParentMax=0;resizeLast=0;collapsible=1;marginBottom=0;whiteSpace=wrap;html=1;" vertex="1" parent="1">
          <mxGeometry x="50" y="130" width="210" height="184" as="geometry" />
        </mxCell>
        <mxCell id="O63pCWCleblXzCytZlu1-18" value="long long id&lt;div&gt;monotime when&lt;/div&gt;&lt;div&gt;aeTimeProc *timeProc&lt;/div&gt;&lt;div&gt;aeEventFinalizerProc *finalizerProc&lt;/div&gt;&lt;div&gt;aeTimeEent *prev&lt;/div&gt;&lt;div&gt;aeTimeEent *next&lt;br&gt;&lt;/div&gt;&lt;div&gt;void *clientData&lt;/div&gt;&lt;div&gt;int refcount&lt;/div&gt;" style="text;strokeColor=none;fillColor=none;align=left;verticalAlign=top;spacingLeft=4;spacingRight=4;overflow=hidden;rotatable=0;points=[[0,0.5],[1,0.5]];portConstraint=eastwest;whiteSpace=wrap;html=1;" vertex="1" parent="O63pCWCleblXzCytZlu1-17">
          <mxGeometry y="26" width="210" height="124" as="geometry" />
        </mxCell>
        <mxCell id="O63pCWCleblXzCytZlu1-19" value="" style="line;strokeWidth=1;fillColor=none;align=left;verticalAlign=middle;spacingTop=-1;spacingLeft=3;spacingRight=3;rotatable=0;labelPosition=right;points=[];portConstraint=eastwest;strokeColor=inherit;" vertex="1" parent="O63pCWCleblXzCytZlu1-17">
          <mxGeometry y="150" width="210" height="8" as="geometry" />
        </mxCell>
        <mxCell id="O63pCWCleblXzCytZlu1-20" value="+ method(type): type" style="text;strokeColor=none;fillColor=none;align=left;verticalAlign=top;spacingLeft=4;spacingRight=4;overflow=hidden;rotatable=0;points=[[0,0.5],[1,0.5]];portConstraint=eastwest;whiteSpace=wrap;html=1;" vertex="1" parent="O63pCWCleblXzCytZlu1-17">
          <mxGeometry y="158" width="210" height="26" as="geometry" />
        </mxCell>
        <mxCell id="O63pCWCleblXzCytZlu1-23" value="void aeFileProc(aeEventLoop *eventLoop, int fd, void *clientData, int mask)&#xa;int    aeTimeProc(aeEventLoop *eventLoop, long long id, void *clientData)&#xa;void aeEventFinalizerProc(aeEventLoop *eventLoop, void *clientData)&#xa;void aeBeforeSleepProc(aeEventLoop *eventLoop)" style="text;whiteSpace=wrap;" vertex="1" parent="1">
          <mxGeometry x="50" y="390" width="440" height="80" as="geometry" />
        </mxCell>
        <mxCell id="O63pCWCleblXzCytZlu1-24" value="" style="endArrow=none;html=1;rounded=0;" edge="1" parent="1" source="O63pCWCleblXzCytZlu1-1" target="O63pCWCleblXzCytZlu1-5">
          <mxGeometry width="50" height="50" relative="1" as="geometry">
            <mxPoint x="700" y="380" as="sourcePoint" />
            <mxPoint x="750" y="330" as="targetPoint" />
          </mxGeometry>
        </mxCell>
        <mxCell id="O63pCWCleblXzCytZlu1-25" value="" style="endArrow=none;html=1;rounded=0;" edge="1" parent="1" source="O63pCWCleblXzCytZlu1-1" target="O63pCWCleblXzCytZlu1-9">
          <mxGeometry width="50" height="50" relative="1" as="geometry">
            <mxPoint x="510" y="228" as="sourcePoint" />
            <mxPoint x="550" y="178" as="targetPoint" />
          </mxGeometry>
        </mxCell>
        <mxCell id="O63pCWCleblXzCytZlu1-26" value="" style="endArrow=none;html=1;rounded=0;" edge="1" parent="1" source="O63pCWCleblXzCytZlu1-1" target="O63pCWCleblXzCytZlu1-17">
          <mxGeometry width="50" height="50" relative="1" as="geometry">
            <mxPoint x="700" y="380" as="sourcePoint" />
            <mxPoint x="750" y="330" as="targetPoint" />
          </mxGeometry>
        </mxCell>
      </root>
    </mxGraphModel>
  </diagram>
</mxfile>
